G04 (created by PCBNEW (2013-feb-21)-testing) date Mon 25 Feb 2013 07:42:26 PM EST*
%MOIN*%
G04 Gerber Fmt 3.4, Leading zero omitted, Abs format*
%FSLAX34Y34*%
G01*
G70*
G90*
G04 APERTURE LIST*
%ADD10C,0.006*%
%ADD11R,0.0708661X0.0433071*%
%ADD12R,0.036X0.036*%
%ADD13R,0.0394X0.0315*%
%ADD14R,0.055X0.035*%
%ADD15R,0.045X0.025*%
%ADD16R,0.025X0.045*%
%ADD17R,0.06X0.03*%
%ADD18R,0.0197X0.1299*%
%ADD19R,0.023622X0.023622*%
%ADD20R,0.015748X0.015748*%
G04 APERTURE END LIST*
G54D10*
G54D11*
X38149Y-43759D03*
X40590Y-43759D03*
X40590Y-45216D03*
X38149Y-45216D03*
G54D12*
X37001Y-39720D03*
X37001Y-39020D03*
X37801Y-39370D03*
G54D13*
X42952Y-35826D03*
X42086Y-36201D03*
X42086Y-35451D03*
G54D14*
X42519Y-39191D03*
X42519Y-39941D03*
X41338Y-38601D03*
X41338Y-39351D03*
G54D15*
X41338Y-34748D03*
X41338Y-34148D03*
G54D16*
X42121Y-37106D03*
X42721Y-37106D03*
G54D17*
X37870Y-35470D03*
X37870Y-35970D03*
X37870Y-36470D03*
X37870Y-36970D03*
X40870Y-35470D03*
X40870Y-35970D03*
X40870Y-36470D03*
X40870Y-36970D03*
G54D15*
X36023Y-39670D03*
X36023Y-39070D03*
X36400Y-35400D03*
X36400Y-34800D03*
G54D16*
X38912Y-37874D03*
X39512Y-37874D03*
X40772Y-37874D03*
X40172Y-37874D03*
G54D12*
X36300Y-38150D03*
X36300Y-37450D03*
X37100Y-37800D03*
G54D16*
X36400Y-36200D03*
X37000Y-36200D03*
G54D18*
X38819Y-39370D03*
X39921Y-39370D03*
G54D19*
X39370Y-38976D03*
X39370Y-39763D03*
G54D20*
X39370Y-39370D03*
M02*
