G04 (created by PCBNEW (2013-mar-13)-testing) date Tue 14 May 2013 06:36:27 AM EDT*
%MOIN*%
G04 Gerber Fmt 3.4, Leading zero omitted, Abs format*
%FSLAX34Y34*%
G01*
G70*
G90*
G04 APERTURE LIST*
%ADD10C,0.005906*%
%ADD11R,0.055000X0.035000*%
%ADD12R,0.137795X0.039370*%
%ADD13R,0.133858X0.062992*%
%ADD14C,0.031000*%
%ADD15R,0.036000X0.036000*%
%ADD16R,0.045000X0.025000*%
%ADD17R,0.025000X0.045000*%
%ADD18R,0.035000X0.055000*%
%ADD19R,0.047200X0.047200*%
%ADD20R,0.023622X0.078740*%
G04 APERTURE END LIST*
G54D10*
G54D11*
X91929Y-45847D03*
X91929Y-45097D03*
G54D12*
X81889Y-44881D03*
X81889Y-44094D03*
G54D13*
X79901Y-47381D03*
X79901Y-41594D03*
G54D12*
X81889Y-43307D03*
X81889Y-42519D03*
X81889Y-45669D03*
X81889Y-46456D03*
X95275Y-44094D03*
X95275Y-44881D03*
G54D13*
X97263Y-41594D03*
X97263Y-47381D03*
G54D12*
X95275Y-45669D03*
X95275Y-46456D03*
X95275Y-43307D03*
X95275Y-42519D03*
G54D14*
X93200Y-49856D03*
X93200Y-49356D03*
X93700Y-49856D03*
X93700Y-49356D03*
X94200Y-49856D03*
X94200Y-49356D03*
G54D15*
X86657Y-49600D03*
X87357Y-49600D03*
X87007Y-50400D03*
X88626Y-49600D03*
X89326Y-49600D03*
X88976Y-50400D03*
X90594Y-49600D03*
X91294Y-49600D03*
X90944Y-50400D03*
G54D16*
X86614Y-46944D03*
X86614Y-47544D03*
G54D17*
X86707Y-48818D03*
X87307Y-48818D03*
G54D16*
X95866Y-49906D03*
X95866Y-49306D03*
G54D17*
X88676Y-48818D03*
X89276Y-48818D03*
X87400Y-44500D03*
X86800Y-44500D03*
X90644Y-48818D03*
X91244Y-48818D03*
G54D16*
X85039Y-47928D03*
X85039Y-48528D03*
G54D18*
X84467Y-50590D03*
X85217Y-50590D03*
G54D17*
X86100Y-44500D03*
X85500Y-44500D03*
G54D19*
X92587Y-46800D03*
X93413Y-46800D03*
G54D17*
X91235Y-46653D03*
X91835Y-46653D03*
G54D16*
X93700Y-46100D03*
X93700Y-45500D03*
G54D20*
X87476Y-47480D03*
X87976Y-47480D03*
X88476Y-47480D03*
X88976Y-47480D03*
X90476Y-45433D03*
X89476Y-47480D03*
X89976Y-47480D03*
X90476Y-47480D03*
X89976Y-45433D03*
X89476Y-45433D03*
X88976Y-45433D03*
X88476Y-45433D03*
X87976Y-45433D03*
X87476Y-45433D03*
M02*
